# xmcd
#
# Track frame offsets: 
#        150
#        21267
#        41703
#        62513
#        80739
#        106953
#        127786
#        151806
#        171096
#        198923
#        215279
#        233190
#        259476
#
# Disc length: 3792 seconds
#
# Revision: 1
# Processed by: cddbd v1.5.2PL0 Copyright (c) Steve Scherf et al.
# Submitted via: ExactAudioCopyFreeDBPlugin 1.0
#
DISCID=aa0ece0d
DTITLE=阿果 - DTSES这一瞬间
DYEAR=2007
DGENRE=DTSES
TTITLE0=这一瞬间
TTITLE1=蓝月亮
TTITLE2=红雪莲
TTITLE3=假行僧
TTITLE4=生如夏花
TTITLE5=阿惹妞
TTITLE6=口弦
TTITLE7=野花
TTITLE8=乞爱者
TTITLE9=月牙泉
TTITLE10=伙伴
TTITLE11=无地自容
TTITLE12=解脱
EXTD=
EXTT0=
EXTT1=
EXTT2=
EXTT3=
EXTT4=
EXTT5=
EXTT6=
EXTT7=
EXTT8=
EXTT9=
EXTT10=
EXTT11=
EXTT12=
PLAYORDER=
